<svg width="156" height="38" viewBox="0 0 156 38" fill="none" xmlns="http://www.w3.org/2000/svg">
<path d="M30.7445 27.6492C32.3023 27.6492 33.5652 26.3863 33.5652 24.8285C33.5652 23.2707 32.3023 22.0078 30.7445 22.0078C29.1867 22.0078 27.9238 23.2707 27.9238 24.8285C27.9238 26.3863 29.1867 27.6492 30.7445 27.6492Z" fill="#589BFF"/>
<path d="M29.7525 24.7155C30.142 24.7155 30.4577 24.3998 30.4577 24.0103C30.4577 23.6209 30.142 23.3052 29.7525 23.3052C29.3631 23.3052 29.0474 23.6209 29.0474 24.0103C29.0474 24.3998 29.3631 24.7155 29.7525 24.7155Z" fill="white"/>
<path d="M16.307 27.6492C17.8648 27.6492 19.1277 26.3863 19.1277 24.8285C19.1277 23.2707 17.8648 22.0078 16.307 22.0078C14.7492 22.0078 13.4863 23.2707 13.4863 24.8285C13.4863 26.3863 14.7492 27.6492 16.307 27.6492Z" fill="#589BFF"/>
<path d="M15.315 24.7155C15.7045 24.7155 16.0202 24.3998 16.0202 24.0103C16.0202 23.6209 15.7045 23.3052 15.315 23.3052C14.9256 23.3052 14.6099 23.6209 14.6099 24.0103C14.6099 24.3998 14.9256 24.7155 15.315 24.7155Z" fill="white"/>
<path d="M23.5055 27.6968C22.3303 27.6968 21.3524 28.5383 21.1597 29.6477C21.1221 29.8593 21.2866 30.0473 21.4888 30.0473H25.5223C25.7245 30.0473 25.889 29.8546 25.8514 29.6477C25.6587 28.5383 24.6808 27.6968 23.5055 27.6968Z" fill="#589BFF"/>
<path d="M47.0112 24.0018C47.0112 10.8527 36.4854 0.195312 23.5056 0.195312C10.5258 0.195312 0 10.8527 0 24.0018C0 29.1495 1.61719 33.907 4.35794 37.8043C4.33443 37.3106 4.31563 36.8123 4.31563 36.3093C4.31563 23.3107 12.867 12.7661 23.4304 12.7191C22.9556 11.5814 23.1342 9.71038 23.6983 8.21072C24.4834 6.13282 25.7762 5.38534 27.1913 5.93067C28.6063 6.476 29.0764 7.90985 28.2913 9.98774C28.1926 10.251 28.0751 10.5143 27.9482 10.7728C29.1281 10.1194 30.0354 10.2839 30.5009 11.116C30.971 11.9575 30.6325 12.846 29.4243 13.5371C29.3068 13.6029 29.1845 13.664 29.0623 13.7251C36.9508 16.6539 42.6956 25.6566 42.6956 36.3093C42.6956 36.8123 42.6768 37.3106 42.6533 37.8043C45.394 33.9117 47.0112 29.1495 47.0112 24.0018Z" fill="#589BFF"/>
<path d="M151.612 11.098C150.532 11.098 149.644 10.786 148.948 10.162C148.276 9.51399 147.94 8.72199 147.94 7.78599C147.94 6.82599 148.276 6.03399 148.948 5.40999C149.644 4.76199 150.532 4.43799 151.612 4.43799C152.668 4.43799 153.532 4.76199 154.204 5.40999C154.9 6.03399 155.248 6.82599 155.248 7.78599C155.248 8.72199 154.9 9.51399 154.204 10.162C153.532 10.786 152.668 11.098 151.612 11.098ZM154.672 13.186V33.274H148.516V13.186H154.672Z" fill="#589BFF"/>
<path d="M139.274 16.5337C139.994 15.4297 140.894 14.5657 141.974 13.9417C143.054 13.2937 144.254 12.9697 145.574 12.9697V19.4857H143.882C142.346 19.4857 141.194 19.8217 140.426 20.4937C139.658 21.1417 139.274 22.2937 139.274 23.9497V33.2737H133.118V13.1857H139.274V16.5337Z" fill="#589BFF"/>
<path d="M107.46 23.194C107.46 21.1299 107.844 19.3179 108.612 17.7579C109.404 16.1979 110.472 14.9979 111.816 14.1579C113.16 13.3179 114.66 12.8979 116.316 12.8979C117.732 12.8979 118.968 13.1859 120.024 13.7619C121.104 14.338 121.932 15.0939 122.508 16.0299V13.1859H128.664V33.274H122.508V30.4299C121.908 31.3659 121.068 32.122 119.988 32.698C118.932 33.274 117.696 33.5619 116.28 33.5619C114.648 33.5619 113.16 33.142 111.816 32.302C110.472 31.438 109.404 30.2259 108.612 28.6659C107.844 27.0819 107.46 25.258 107.46 23.194ZM122.508 23.2299C122.508 21.6939 122.076 20.482 121.212 19.594C120.372 18.706 119.34 18.2619 118.116 18.2619C116.892 18.2619 115.848 18.706 114.984 19.594C114.144 20.458 113.724 21.658 113.724 23.194C113.724 24.73 114.144 25.9539 114.984 26.8659C115.848 27.754 116.892 28.198 118.116 28.198C119.34 28.198 120.372 27.754 121.212 26.8659C122.076 25.9779 122.508 24.766 122.508 23.2299Z" fill="#589BFF"/>
<path d="M101.163 11.098C100.083 11.098 99.1952 10.786 98.4992 10.162C97.8272 9.51399 97.4912 8.72199 97.4912 7.78599C97.4912 6.82599 97.8272 6.03399 98.4992 5.40999C99.1952 4.76199 100.083 4.43799 101.163 4.43799C102.219 4.43799 103.083 4.76199 103.755 5.40999C104.451 6.03399 104.799 6.82599 104.799 7.78599C104.799 8.72199 104.451 9.51399 103.755 10.162C103.083 10.786 102.219 11.098 101.163 11.098ZM104.223 13.186V33.274H98.0672V13.186H104.223Z" fill="#589BFF"/>
<path d="M88.8245 16.5337C89.5445 15.4297 90.4445 14.5657 91.5245 13.9417C92.6045 13.2937 93.8045 12.9697 95.1245 12.9697V19.4857H93.4325C91.8965 19.4857 90.7445 19.8217 89.9765 20.4937C89.2085 21.1417 88.8245 22.2937 88.8245 23.9497V33.2737H82.6685V13.1857H88.8245V16.5337Z" fill="#589BFF"/>
<path d="M57.0107 23.194C57.0107 21.1299 57.3947 19.3179 58.1627 17.7579C58.9547 16.1979 60.0227 14.9979 61.3667 14.1579C62.7107 13.3179 64.2107 12.8979 65.8667 12.8979C67.2827 12.8979 68.5187 13.1859 69.5747 13.7619C70.6547 14.338 71.4827 15.0939 72.0587 16.0299V13.1859H78.2147V33.274H72.0587V30.4299C71.4587 31.3659 70.6187 32.122 69.5387 32.698C68.4827 33.274 67.2467 33.5619 65.8307 33.5619C64.1987 33.5619 62.7107 33.142 61.3667 32.302C60.0227 31.438 58.9547 30.2259 58.1627 28.6659C57.3947 27.0819 57.0107 25.258 57.0107 23.194ZM72.0587 23.2299C72.0587 21.6939 71.6267 20.482 70.7627 19.594C69.9227 18.706 68.8907 18.2619 67.6667 18.2619C66.4427 18.2619 65.3987 18.706 64.5347 19.594C63.6947 20.458 63.2747 21.658 63.2747 23.194C63.2747 24.73 63.6947 25.9539 64.5347 26.8659C65.3987 27.754 66.4427 28.198 67.6667 28.198C68.8907 28.198 69.9227 27.754 70.7627 26.8659C71.6267 25.9779 72.0587 24.766 72.0587 23.2299Z" fill="#589BFF"/>
</svg>
